<mxfile host="app.diagrams.net" modified="2023-10-05T18:00:21.079Z" agent="Mozilla/5.0 (Windows NT 10.0; Win64; x64) AppleWebKit/537.36 (KHTML, like Gecko) Chrome/117.0.0.0 Safari/537.36" version="22.0.0" etag="w7J6H9TA2ZU9W2zFPhtM" type="github">
  <diagram name="Page-1" id="q_xTu9eM8eS7kTVdoQ3X">
    <mxGraphModel>
      <root>
        <mxCell id="0" />
        <mxCell id="1" parent="0" />
      </root>
    </mxGraphModel>
  </diagram>
</mxfile>
